<?xml version="1.0" encoding="utf-8"?><!-- Uploaded to: SVG Repo, www.svgrepo.com, Generator: SVG Repo Mixer Tools -->
<svg width="800px" height="800px" viewBox="0 0 24 24" fill="none" xmlns="http://www.w3.org/2000/svg">
<path fill-rule="evenodd" clip-rule="evenodd" d="M14.625 7.00008L14.5217 6.78908C13.9873 5.69263 12.8947 5 11.6995 5C10.5044 5 9.4118 5.69263 8.8774 6.78908L8.77502 7.00008H14.625Z" stroke="#ffffff" stroke-width="1.5" stroke-linecap="round" stroke-linejoin="round"/>
<path d="M10.6117 11.8095C10.3225 11.513 9.84769 11.507 9.55111 11.7961C9.25453 12.0853 9.24852 12.5601 9.53769 12.8567L10.6117 11.8095ZM11.163 14.5237C11.4522 14.8203 11.927 14.8263 12.2236 14.5371C12.5202 14.248 12.5262 13.7731 12.237 13.4765L11.163 14.5237ZM9.53769 15.1435C9.24852 15.4401 9.25453 15.915 9.55111 16.2041C9.84769 16.4933 10.3225 16.4873 10.6117 16.1907L9.53769 15.1435ZM12.237 14.5237C12.5262 14.2271 12.5202 13.7523 12.2236 13.4631C11.927 13.174 11.4522 13.18 11.163 13.4765L12.237 14.5237ZM13.8623 12.8567C14.1515 12.5601 14.1455 12.0853 13.8489 11.7961C13.5523 11.507 13.0775 11.513 12.7883 11.8095L13.8623 12.8567ZM11.163 13.4765C10.8738 13.7731 10.8799 14.248 11.1764 14.5371C11.473 14.8263 11.9478 14.8203 12.237 14.5237L11.163 13.4765ZM12.7883 16.1907C13.0775 16.4873 13.5523 16.4933 13.8489 16.2041C14.1455 15.915 14.1515 15.4401 13.8623 15.1435L12.7883 16.1907ZM12.237 13.4765C11.9478 13.18 11.473 13.174 11.1764 13.4631C10.8799 13.7523 10.8738 14.2271 11.163 14.5237L12.237 13.4765ZM16.575 7.75012C16.9892 7.75012 17.325 7.41434 17.325 7.00012C17.325 6.58591 16.9892 6.25012 16.575 6.25012V7.75012ZM14.625 6.25012C14.2108 6.25012 13.875 6.58591 13.875 7.00012C13.875 7.41434 14.2108 7.75012 14.625 7.75012V6.25012ZM6.82501 6.25012C6.4108 6.25012 6.07501 6.58591 6.07501 7.00012C6.07501 7.41434 6.4108 7.75012 6.82501 7.75012V6.25012ZM8.77501 7.75012C9.18923 7.75012 9.52501 7.41434 9.52501 7.00012C9.52501 6.58591 9.18923 6.25012 8.77501 6.25012V7.75012ZM7.53894 18.2679L7.00194 18.7915L7.00194 18.7915L7.53894 18.2679ZM6.82501 16.5001H7.57501H6.82501ZM9.53769 12.8567L11.163 14.5237L12.237 13.4765L10.6117 11.8095L9.53769 12.8567ZM10.6117 16.1907L12.237 14.5237L11.163 13.4765L9.53769 15.1435L10.6117 16.1907ZM12.7883 11.8095L11.163 13.4765L12.237 14.5237L13.8623 12.8567L12.7883 11.8095ZM13.8623 15.1435L12.237 13.4765L11.163 14.5237L12.7883 16.1907L13.8623 15.1435ZM16.575 6.25012H14.625V7.75012H16.575V6.25012ZM6.82501 7.75012H8.77501V6.25012H6.82501V7.75012ZM7.63719 9.75012H15.7628V8.25012H7.63719V9.75012ZM15.7628 9.75012C15.7739 9.75012 15.7864 9.75363 15.8001 9.76768C15.8142 9.78206 15.825 9.80384 15.825 9.83312H17.325C17.325 8.97687 16.6434 8.25012 15.7628 8.25012V9.75012ZM15.825 9.83312V16.5001H17.325V9.83312H15.825ZM15.825 16.5001C15.825 17.4846 15.0517 18.2501 14.1375 18.2501V19.7501C15.9157 19.7501 17.325 18.277 17.325 16.5001H15.825ZM14.1375 18.2501H9.26251V19.7501H14.1375V18.2501ZM9.26251 18.2501C8.82117 18.2501 8.39395 18.0705 8.07594 17.7443L7.00194 18.7915C7.59816 19.403 8.41092 19.7501 9.26251 19.7501V18.2501ZM8.07594 17.7443C7.7573 17.4175 7.57501 16.9703 7.57501 16.5001H6.07501C6.07501 17.356 6.40634 18.1806 7.00194 18.7915L8.07594 17.7443ZM7.57501 16.5001V9.83312H6.07501V16.5001H7.57501ZM7.57501 9.83312C7.57501 9.80384 7.58587 9.78206 7.59989 9.76768C7.61359 9.75363 7.62614 9.75012 7.63719 9.75012V8.25012C6.75664 8.25012 6.07501 8.97687 6.07501 9.83312H7.57501Z" fill="#ffffff"/>
</svg>